<svg width="22" height="22" viewBox="0 0 22 22" fill="none" xmlns="http://www.w3.org/2000/svg">
<g id="touch_app">
<mask id="mask0_1_233" style="mask-type:alpha" maskUnits="userSpaceOnUse" x="0" y="0" width="22" height="22">
<rect id="Bounding box" width="22" height="22" fill="#D9D9D9"/>
</mask>
<g mask="url(#mask0_1_233)">
<path id="touch_app_2" d="M9.91938 19.7083C9.45634 19.7083 9.01857 19.6107 8.60607 19.4156C8.19357 19.2206 7.84865 18.9403 7.57129 18.5748L2.90161 12.5266L3.24007 12.1652C3.46922 11.9208 3.74333 11.7739 4.06239 11.7245C4.38146 11.6751 4.68026 11.7357 4.95877 11.9061L7.1923 13.1048V5.85258C7.1923 5.65778 7.25821 5.4945 7.39005 5.36273C7.52186 5.23096 7.68521 5.16508 7.8801 5.16508C8.07496 5.16508 8.24056 5.23096 8.37688 5.36273C8.51321 5.4945 8.58137 5.65778 8.58137 5.85258V15.5321L5.82956 14.0337L8.6889 17.7604C8.83934 17.9496 9.02268 18.0924 9.23892 18.1888C9.45516 18.2851 9.68198 18.3333 9.91938 18.3333H14.4286C15.0033 18.3333 15.4922 18.1332 15.8953 17.7331C16.2984 17.3329 16.5 16.8455 16.5 16.2708V12.8157C16.5 12.501 16.3935 12.2372 16.1807 12.0244C15.9678 11.8115 15.704 11.7051 15.3894 11.7051H10.7673V10.3301H15.3894C16.0798 10.3301 16.6667 10.5718 17.15 11.0551C17.6333 11.5384 17.875 12.1253 17.875 12.8157V16.2702C17.875 17.2202 17.5375 18.0307 16.8626 18.7017C16.1877 19.3728 15.3764 19.7083 14.4286 19.7083H9.91938ZM4.31186 7.91505C4.13088 7.60832 3.9928 7.28034 3.89762 6.9311C3.80242 6.58187 3.75482 6.22236 3.75482 5.85258C3.75482 4.70792 4.15615 3.73426 4.95882 2.9316C5.76148 2.12893 6.73513 1.7276 7.87978 1.7276C9.02443 1.7276 9.99809 2.12893 10.8008 2.9316C11.6034 3.73426 12.0048 4.70755 12.0048 5.85145C12.0048 6.22356 11.9572 6.58384 11.862 6.93229C11.7668 7.28074 11.6287 7.60832 11.4477 7.91505L10.2631 7.22758C10.3853 7.01369 10.477 6.79598 10.5381 6.57445C10.5992 6.35292 10.6298 6.1123 10.6298 5.85258C10.6298 5.08869 10.3624 4.43938 9.82769 3.90466C9.29297 3.36994 8.64366 3.10258 7.87978 3.10258C7.11589 3.10258 6.46658 3.36994 5.93186 3.90466C5.39714 4.43938 5.12978 5.08869 5.12978 5.85258C5.12978 6.1123 5.16033 6.35292 5.22144 6.57445C5.28255 6.79598 5.37422 7.01369 5.49644 7.22758L4.31186 7.91505Z" fill="#1C1B1F"/>
</g>
</g>
</svg>
